<svg xmlns="http://www.w3.org/2000/svg" viewBox="0 0 800 113.16"><defs><style>.cls-1,.cls-3{fill:#fff;}.cls-2,.cls-3{opacity:0.75;}</style></defs><title>Protecte Tech Logo</title><g id="Layer_2" data-name="Layer 2"><g id="Layer_1-2" data-name="Layer 1"><g id="Protecte_Tech_Logo" data-name="Protecte Tech Logo"><path class="cls-1" d="M77.58,13.67a12.91,12.91,0,0,1-4.07,9.7,12.87,12.87,0,0,1-9.7,4.07h-56V47H0V0H63.81a12.91,12.91,0,0,1,9.7,4.07A13.17,13.17,0,0,1,77.58,13.67Zm-7.86,0A5.58,5.58,0,0,0,68,9.6a5.65,5.65,0,0,0-4.17-1.75h-56V19.59h56A5.61,5.61,0,0,0,68,17.84,5.49,5.49,0,0,0,69.72,13.67Z"/><path class="cls-1" d="M163.21,25.89a22.7,22.7,0,0,1,7.47,17.17v4h-7.86v-4a15.57,15.57,0,0,0-15.61-15.62H101V47H93.1V0h63.81a12.87,12.87,0,0,1,9.69,4.07,13.14,13.14,0,0,1,4.08,9.6,13.48,13.48,0,0,1-2,7.28A14,14,0,0,1,163.21,25.89Zm-.39-12.22a5.58,5.58,0,0,0-1.74-4.07,5.67,5.67,0,0,0-4.17-1.75H101V19.59h56a5.63,5.63,0,0,0,4.17-1.75A5.49,5.49,0,0,0,162.82,13.67Z"/><path class="cls-1" d="M263.78,13.67V33.36a13.36,13.36,0,0,1-4.08,9.7,12.61,12.61,0,0,1-9.6,4H200a12.82,12.82,0,0,1-9.7-4,13.19,13.19,0,0,1-4.07-9.7V13.48A13,13,0,0,1,190.27,4a12.58,12.58,0,0,1,9.6-4H250a12.93,12.93,0,0,1,9.69,4A13.16,13.16,0,0,1,263.78,13.67Zm-7.86,19.69V13.67a5.63,5.63,0,0,0-1.75-4.17A5.63,5.63,0,0,0,250,7.76H200A5.64,5.64,0,0,0,195.8,9.5a5.63,5.63,0,0,0-1.75,4.17V33.36a5.63,5.63,0,0,0,1.75,4.17,5.88,5.88,0,0,0,3,1.65H250a6,6,0,0,0,5.91-5.82Z"/><path class="cls-1" d="M356.87,0V7.85H322.16V47H314.3V7.85h-35V0Z"/><path class="cls-1" d="M380.25,13.67v5.92h61.48v7.85H380.25v5.92A5.66,5.66,0,0,0,382,37.53a5.91,5.91,0,0,0,3,1.65h65V47H386.16a12.79,12.79,0,0,1-9.69-4,13.36,13.36,0,0,1-4.08-9.7V13.67A13.32,13.32,0,0,1,376.47,4a12.76,12.76,0,0,1,9.69-4H450V7.85H385a5.91,5.91,0,0,0-3,1.65A5.66,5.66,0,0,0,380.25,13.67Z"/><path class="cls-1" d="M543.07,33.36a13.39,13.39,0,0,1-4.07,9.7,12.61,12.61,0,0,1-9.6,4H479.26a12.82,12.82,0,0,1-9.7-4,13.22,13.22,0,0,1-4.07-9.7V13.48A13.08,13.08,0,0,1,469.56,4a12.59,12.59,0,0,1,9.6-4H529.3A13,13,0,0,1,539,4a13.19,13.19,0,0,1,4.07,9.69h-7.86a5.66,5.66,0,0,0-1.74-4.17,5.64,5.64,0,0,0-4.17-1.74h-50a5.64,5.64,0,0,0-4.17,1.74,5.66,5.66,0,0,0-1.74,4.17V33.36a5.66,5.66,0,0,0,1.74,4.17,5.87,5.87,0,0,0,3,1.65h51.2a6,6,0,0,0,5.91-5.82Z"/><path class="cls-1" d="M636.17,0V7.85H601.45V47H593.6V7.85h-35V0Z"/><path class="cls-1" d="M659.54,13.67v5.92H721v7.85H659.54v5.92a5.63,5.63,0,0,0,1.75,4.17,5.88,5.88,0,0,0,3,1.65h65V47H665.46a12.82,12.82,0,0,1-9.7-4,13.35,13.35,0,0,1-4.07-9.7V13.67A13.31,13.31,0,0,1,655.76,4a12.8,12.8,0,0,1,9.7-4h63.81V7.85h-65a5.88,5.88,0,0,0-3,1.65A5.63,5.63,0,0,0,659.54,13.67Z"/><g class="cls-2"><rect class="cls-3" x="180.09" y="60.45" width="566.74" height="2.6"/><path class="cls-1" d="M765.74,95.8q0-34.27-34.25-34.26,34.26,0,34.25-34.26,0,34.28,34.26,34.26Q765.74,61.54,765.74,95.8Z"/></g><path class="cls-1" d="M211.36,77.71v3.67H200.67v24.33h-4V81.38H186V77.71Z"/><path class="cls-1" d="M241.59,96.11c0,4,3,6.71,7.4,6.71,3.28,0,5.75-1.27,6.6-3.55H260c-1.47,4.47-5.44,7-11,7-7,0-11.38-4.24-11.38-10.91S242.05,84.31,249,84.31c7.1,0,11.3,4.16,11.3,11.07v.73Zm14.69-2.66c-.58-3.51-3.28-5.67-7.29-5.67s-6.71,2.12-7.33,5.67Z"/><path class="cls-1" d="M305.64,91.87c-.73-2.55-3-4.09-6.05-4.09-4.75,0-7.64,2.93-7.64,7.63s3,7.41,7.37,7.41c3.43,0,5.94-1.81,6.44-4.86h3.93c-.88,5.25-4.86,8.33-10.53,8.33-6.59,0-11.18-4.32-11.18-10.91s4.55-11.07,11.26-11.07c5.48,0,9.41,2.93,10.3,7.56Z"/><path class="cls-1" d="M342.47,88.55A10.39,10.39,0,0,1,351,84.31c6.29,0,7.87,3.62,7.87,9.06v12.34h-3.74v-12c0-4.2-1.23-6.21-5-6.21a7.38,7.38,0,0,0-7.67,7.71v10.53h-3.74v-28h3.74Z"/><path class="cls-1" d="M393,88.55a10.39,10.39,0,0,1,8.52-4.24c6.29,0,7.87,3.62,7.87,9.06v12.34h-3.74v-12c0-4.2-1.24-6.21-5-6.21A7.38,7.38,0,0,0,393,95.18v10.53h-3.74V85H393Z"/><path class="cls-1" d="M461.59,95.38c0,6.67-4.43,10.91-11.57,10.91s-11.61-4.24-11.61-10.91S442.89,84.31,450,84.31,461.59,88.7,461.59,95.38Zm-19.2-.08c0,4.7,2.89,7.52,7.63,7.52s7.6-2.82,7.6-7.52-2.85-7.52-7.6-7.52S442.39,90.59,442.39,95.3Z"/><path class="cls-1" d="M494.68,105.71h-3.74v-28h3.74Z"/><path class="cls-1" d="M547.2,95.38c0,6.67-4.43,10.91-11.57,10.91S524,102.05,524,95.38s4.48-11.07,11.61-11.07S547.2,88.7,547.2,95.38ZM528,95.3c0,4.7,2.89,7.52,7.63,7.52s7.6-2.82,7.6-7.52-2.85-7.52-7.6-7.52S528,90.59,528,95.3Z"/><path class="cls-1" d="M597.76,85v18.09c0,7-3.47,10.11-11.57,10.11-6.06,0-9.49-2.43-9.91-6.75h4.2c.39,2.23,2.31,3.27,5.75,3.27,5.67,0,7.79-1.81,7.79-6.32v-.69a10.11,10.11,0,0,1-8,3.62c-6.6,0-11.11-4.47-11.11-10.91A10.61,10.61,0,0,1,586,84.31a9.16,9.16,0,0,1,8.06,4V85ZM578.82,95.38c0,4.7,2.93,7.44,7.72,7.44s7.75-2.78,7.75-7.44-3-7.6-7.75-7.6S578.82,90.63,578.82,95.38Z"/><path class="cls-1" d="M628.46,82.26V77.71h3.74v4.55Zm3.74,23.45h-3.74V85h3.74Z"/><path class="cls-1" d="M665.51,96.11c0,4,3,6.71,7.41,6.71,3.28,0,5.74-1.27,6.59-3.55h4.36c-1.46,4.47-5.44,7-11,7-7,0-11.38-4.24-11.38-10.91S666,84.31,672.92,84.31c7.09,0,11.3,4.16,11.3,11.07v.73Zm14.7-2.66c-.58-3.51-3.28-5.67-7.29-5.67s-6.71,2.12-7.33,5.67Z"/><path class="cls-1" d="M728,91.21c-.27-2.58-2.28-3.74-6-3.74-3.51,0-5.4,1-5.4,2.78,0,2,1.54,2.39,4.71,2.93l4.47.73c4.63.77,6.52,2.16,6.52,5.9,0,4.21-3.43,6.48-10.22,6.48-6.44,0-9.72-2.24-10.18-7.33H716c.35,2.66,2.51,4.17,6.1,4.17,4.24,0,6.48-1.24,6.48-3.13,0-1.62-1.16-2.16-3.78-2.58l-4.63-.81c-4.86-.81-7.29-1.89-7.29-5.71,0-4.28,3.16-6.59,9.33-6.59s9.45,2.43,9.45,6.9Z"/></g></g></g></svg>